# xmcd
#
# Track frame offsets: 
#        150
#        20372
#        41810
#        73287
#        88550
#        102382
#        125285
#        146637
#        163077
#        183415
#        216785
#        245182
#        263707
#
# Disc length: 4006 seconds
#
# Revision: 4
# Processed by: cddbd v1.5.2PL0 Copyright (c) Steve Scherf et al.
# Submitted via: ExactAudioCopy v0.99pb5
#
DISCID=c20fa40d
DTITLE=Carey Bell, Lazy Lester, Raful Neal and Snooky Pryor - Superharps
DTITLE=II
DYEAR=2001
DGENRE=Blues
TTITLE0=Carey Bell - Walking Thru The Park
TTITLE1=Snooky Pryor and Carey Bell - Keyhole In Your Door
TTITLE2=Raful Neal - I Miss You Baby
TTITLE3=Lazy Lester and Raful Neal - Strange Things Happen
TTITLE4=Lazy Lester and Raful Neal - I Made Up My Mind
TTITLE5=Snooky Pryor - Let Your Hair Down
TTITLE6=Carey Bell - What My Mama Told Me
TTITLE7=Lazy Lester - I Hear You Knockin'
TTITLE8=Snooky Pryor and Lazy Lester - Shake My Hand
TTITLE9=Raful Neal and Lazy Lester - Starlight Diamond
TTITLE10=Carey Bell and Snooky Pryor - She's Nineteen Years Old
TTITLE11=Lazy Lester and Snooky Pryor - Blood Stains On The Wall
TTITLE12=Raful Neal, Lazy Lester, Snooky Pryor and Carey Bell - Harp To 
TTITLE12=Harp
EXTD=
EXTT0=
EXTT1=
EXTT2=
EXTT3=
EXTT4=
EXTT5=
EXTT6=
EXTT7=
EXTT8=
EXTT9=
EXTT10=
EXTT11=
EXTT12=
PLAYORDER=
